<?xml version="1.0" encoding="UTF-8"?>
<svg id="Layer_1" data-name="Layer 1" xmlns="http://www.w3.org/2000/svg" viewBox="0 0 840 881">
  <defs>
    <style>
      .cls-1 {
        fill: #4a4a4a;
      }

      .cls-2 {
        fill: #f5f5f5;
      }

      .cls-3 {
        fill: #cacaca;
      }
    </style>
  </defs>
  <path class="cls-2" d="M840,0v881H0V0h840ZM691,734c221.56-198.5,144.92-567.12-132.23-668.27C276.68-37.23-12.62,193.27,23.13,490.37c9.9,82.31,59.25,192.88,126.87,242.63.16.12.49,2.27,1.93,3.55,103.05,91.33,240.88,125.45,373.29,89.17,63.78-17.48,116.82-47.85,165.78-91.72Z"/>
  <path class="cls-3" d="M150,733c-67.63-49.74-116.97-160.32-126.87-242.63C-12.62,193.27,276.68-37.23,558.77,65.73c277.15,101.16,353.79,469.77,132.23,668.27.53-2.43-1.24-2.07-2.63-2.82-36.13-19.42-74.95-36.54-110.39-56.66-28.27-16.04-54.38-42.79-61.49-75.51-.91-4.21-3.01-14.48-2.29-18.27,1.28-6.72,11.73-21.66,14.83-29.22,8.84-21.58,13.21-47.27,21.66-69.26,27.46-20.46,37.56-64.01,26.08-95.55-1.37-3.75-6.68-11.34-6.86-14.21-.35-5.7,5.47-24.84,6.77-32.33,7.41-42.83,5.73-67.19-18.27-104.1-65.49-100.74-239.76-95.13-288.59,18.24-14.88,34.55-11.13,59.12-4.53,94.88.92,4.96,5.83,20.84,5.45,24.17-.17,1.45-5.35,9.39-6.5,12.36-10.39,26.91-4.71,62.04,12.79,84.73,2.98,3.86,11.29,10.59,12.74,13.26,8.94,16.47,15.2,48.97,22.78,68.22,4.41,11.21,14.05,23.99,13.44,35.54-1.7,32.18-23.74,61.99-49.85,79.14l-126.13,66.37Z"/>
  <path class="cls-1" d="M150,733l126.13-66.37c26.11-17.15,48.15-46.96,49.85-79.14.61-11.55-9.02-24.33-13.44-35.54-7.58-19.25-13.84-51.75-22.78-68.22-1.45-2.67-9.76-9.4-12.74-13.26-17.5-22.7-23.17-57.83-12.79-84.73,1.15-2.98,6.33-10.91,6.5-12.36.38-3.33-4.53-19.21-5.45-24.17-6.6-35.76-10.34-60.34,4.53-94.88,48.83-113.37,223.1-118.99,288.59-18.24,24,36.92,25.68,61.27,18.27,104.1-1.29,7.48-7.12,26.63-6.77,32.33.18,2.87,5.49,10.46,6.86,14.21,11.48,31.54,1.38,75.09-26.08,95.55-8.45,21.99-12.82,47.68-21.66,69.26-3.1,7.56-13.55,22.5-14.83,29.22-.72,3.78,1.38,14.06,2.29,18.27,7.11,32.72,33.22,59.47,61.49,75.51,35.44,20.12,74.26,37.24,110.39,56.66,1.4.75,3.16.39,2.63,2.82-48.97,43.87-102.01,74.24-165.78,91.72-132.41,36.29-270.24,2.17-373.29-89.17-1.44-1.27-1.76-3.43-1.93-3.55Z"/>
</svg>